<svg xmlns="http://www.w3.org/2000/svg" viewBox="0 0 32 32"><defs><linearGradient id="grad1" x1="0%" y1="0%" x2="100%" y2="100%"><stop offset="0%" style="stop-color: rgba(255, 255, 255, 0.7); stop-opacity: 1"/><stop offset="100%" style="stop-color: rgba(255, 255, 255, 0.4); stop-opacity: 1"/></linearGradient></defs><g class="layer"><path d="m15.75,17.05a4.52,4.52 0 1 0 -4.52,-4.52a4.52,4.52 0 0 0 4.52,4.52zm0,-7.75a3.23,3.23 0 1 1 -3.23,3.23a3.23,3.23 0 0 1 3.23,-3.23z" fill="url(#grad1)"/><path d="m16.4,18.34l-1.29,0a7.11,7.11 0 0 0 -7.11,7.11a0.65,0.65 0 0 0 0.65,0.65l14.21,0a0.65,0.65 0 0 0 0.65,-0.65a7.11,7.11 0 0 0 -7.11,-7.11zm-7.07,6.46a5.82,5.82 0 0 1 5.78,-5.17l1.29,0a5.82,5.82 0 0 1 5.78,5.17l-12.84,0z" fill="url(#grad1)"/><circle cx="16" cy="17.23" fill="none" r="12.64" stroke="url(#grad1)" stroke-width="1.2"/></g></svg>
